<svg xmlns="http://www.w3.org/2000/svg" viewBox="0 0 81.08 82.09"><defs><style>.cls-1{fill:#ff5c83;}</style></defs><g id="Capa_2" data-name="Capa 2"><g id="Capa_1-2" data-name="Capa 1"><path class="cls-1" d="M57.92,64.45a3.49,3.49,0,0,0-3.5,3.5,7.16,7.16,0,0,1-7.14,7.14H14.14A7.15,7.15,0,0,1,7,68V14.14A7.14,7.14,0,0,1,14.14,7H47.28a7.15,7.15,0,0,1,7.14,7.14,3.5,3.5,0,0,0,7,0A14.16,14.16,0,0,0,47.28,0H14.14A14.15,14.15,0,0,0,0,14.14V68A14.16,14.16,0,0,0,14.14,82.09H47.28A14.16,14.16,0,0,0,61.42,68,3.5,3.5,0,0,0,57.92,64.45Z"/><path class="cls-1" d="M77.58,37.55H42.2l8.18-8.63A3.5,3.5,0,1,0,45.3,24.1L31.24,38.94a3.49,3.49,0,0,0,.12,4.94l14.07,13.4a3.5,3.5,0,0,0,4.83-5.07l-8-7.66H77.58a3.5,3.5,0,0,0,0-7Z"/></g></g></svg>